<?xml version="1.0" encoding="UTF-8" standalone="no"?>
<!-- Created with Inkscape (http://www.inkscape.org/) -->

<svg
   xmlns:dc="http://purl.org/dc/elements/1.1/"
   xmlns:cc="http://creativecommons.org/ns#"
   xmlns:rdf="http://www.w3.org/1999/02/22-rdf-syntax-ns#"
   xmlns:svg="http://www.w3.org/2000/svg"
   xmlns="http://www.w3.org/2000/svg"
   version="1.1"
   width="113.179mm"
   height="94.013802mm"
   viewBox="0 0 113.179 94.0138"
   id="svg2"
   xml:space="preserve"
   style="fill-rule:evenodd"><metadata
   id="metadata14"><rdf:RDF><cc:Work
       rdf:about=""><dc:format>image/svg+xml</dc:format><dc:type
         rdf:resource="http://purl.org/dc/dcmitype/StillImage" /><dc:title></dc:title></cc:Work></rdf:RDF></metadata>
 <defs
   id="defs4">
  <style
   type="text/css"
   id="style6" />
 </defs>
 <g
   id="Layer_x0020_1">
  <metadata
   id="CorelCorpID_0Corel-Layer" />
  <path
   d="m 47.0068,59.4818 -4.068,4.0681 2.6218,2.6218 8.1362,-8.1361 -8.1362,-8.1362 -13.6505,13.6504 24.6791,24.6791 24.6791,-24.679 -13.6504,-13.6505 -8.1362,8.1362 8.1362,8.1361 2.6218,-2.6218 -4.0681,-4.0681 2.8925,-2.8924 5.5143,5.5143 1.4462,1.4462 -1.4462,1.4462 -5.5143,5.5144 -1.4462,1.4463 -1.4463,-1.4463 -4.0681,-4.0681 -2.6218,2.6218 4.0681,4.0681 1.4464,1.4464 -1.4464,1.4461 -5.5143,5.5141 -1.4463,1.4463 -1.4462,-1.4463 -5.5143,-5.5141 -1.4463,-1.4461 1.4463,-1.4464 4.0681,-4.0681 -2.6219,-2.6218 -4.0681,4.0681 -1.4462,1.4462 L 44.1144,70.5105 38.6,64.9961 37.1538,63.5499 38.6,62.1037 l 5.5144,-5.5143 2.8924,2.8924 z m 9.5824,-4.3387 8.1362,-8.1361 -8.1362,-8.1362 -8.1361,8.1362 8.1361,8.1361 z M 67.6179,44.1145 81.2683,30.464 56.5892,5.7849 31.9103,30.464 l 13.6503,13.6505 8.1362,-8.1362 -8.1362,-8.1361 -2.6218,2.6218 4.068,4.0681 -2.8924,2.8925 L 38.6,31.9103 37.1538,30.464 38.6,29.0178 l 5.5144,-5.5143 1.4462,-1.4461 1.4462,1.4461 4.0681,4.068 2.6219,-2.6218 -4.0681,-4.0681 -1.4463,-1.4462 1.4463,-1.4462 5.5143,-5.5142 1.4462,-1.4461 1.4463,1.4461 5.5143,5.5142 1.4464,1.4462 -1.4464,1.4462 -4.0681,4.0681 2.6218,2.6218 4.0681,-4.068 1.4463,-1.4463 1.4462,1.4463 5.5143,5.5143 1.4462,1.4462 -1.4462,1.4463 -5.5143,5.5143 -2.8925,-2.8925 4.0681,-4.0681 -2.6218,-2.6218 -8.1362,8.1361 8.1362,8.1362 z m 16.5429,-16.543 26.1253,-26.1253 2.8925,2.8925 -26.1253,26.1253 15.0967,15.0967 1.4462,1.4464 -1.4462,1.4461 -15.0967,15.0967 26.1253,26.1252 -2.8925,2.8925 L 84.1608,66.4422 58.0355,92.5676 56.5892,94.0138 55.143,92.5676 29.0177,66.4422 2.8925,92.5676 0,89.6751 26.1252,63.5498 11.0286,48.4532 9.5825,47.0071 11.0286,45.5607 26.1253,30.464 0,4.3387 2.8925,1.4462 29.0178,27.5715 55.143,1.4462 56.5892,0 58.0355,1.4462 84.1608,27.5715 z m 0,5.785 L 70.5103,47.007 84.1608,60.6574 97.8113,47.007 84.1608,33.3565 z m -27.5716,27.5716 -2.6218,2.6218 2.6218,2.6218 2.6219,-2.6218 -2.6219,-2.6218 z m 0,11.0286 -2.6218,2.6218 2.6218,2.6217 2.6219,-2.6217 -2.6219,-2.6218 z M 42.6681,47.007 29.0178,33.3565 15.3673,47.007 29.0177,60.6573 42.6681,47.007 z m 11.2993,-16.543 2.6218,2.6219 2.6219,-2.6219 -2.6219,-2.6218 -2.6218,2.6218 z m 0,-11.0286 2.6218,2.6218 2.6219,-2.6218 -2.6219,-2.6217 -2.6218,2.6217 z"
   id="path10"
   style="fill:#e31e24;fill-rule:nonzero" />
 </g>
</svg>